<svg xmlns="http://www.w3.org/2000/svg" style="display:none" aria-hidden="true">
  <symbol id="icon-user" viewBox="0 0 24 24" fill="none" stroke="currentColor" stroke-width="1.8" stroke-linecap="round" stroke-linejoin="round">
    <circle cx="12" cy="8" r="3.2"/><path d="M4.5 20c1.5-4 4.2-6 7.5-6s6 2 7.5 6"/>
  </symbol>
  <symbol id="icon-hide" viewBox="0 0 24 24" fill="none" stroke="currentColor" stroke-width="1.8" stroke-linecap="round" stroke-linejoin="round">
    <path d="M3 3l18 18"/><path d="M10.6 5.2A10.6 10.6 0 0 1 12 5c5 0 8.7 3.2 10 7-.6 1.7-1.6 3.2-2.9 4.4M6.9 6.9C4.7 8.2 3 10.4 2 12c1.3 3.8 5 7 10 7 1.4 0 2.7-.3 3.9-.7"/><path d="M9.5 9.8a3.2 3.2 0 0 0 4.6 4.6"/>
  </symbol>
  <symbol id="icon-show" viewBox="0 0 24 24" fill="none" stroke="currentColor" stroke-width="1.8" stroke-linecap="round" stroke-linejoin="round">
    <path d="M2 12c1.3-3.8 5-7 10-7s8.7 3.2 10 7c-1.3 3.8-5 7-10 7s-8.7-3.2-10-7Z"/><circle cx="12" cy="12" r="3.2"/>
  </symbol>
  <symbol id="icon-envelope" viewBox="0 0 24 24" fill="none" stroke="currentColor" stroke-width="1.8" stroke-linecap="round" stroke-linejoin="round">
    <rect x="3" y="5" width="18" height="14" rx="2"/><path d="M3.5 6.5 12 13l8.5-6.5"/>
  </symbol>
  <symbol id="icon-briefcase" viewBox="0 0 24 24" fill="none" stroke="currentColor" stroke-width="1.8" stroke-linecap="round" stroke-linejoin="round">
    <rect x="3" y="7.5" width="18" height="12" rx="2"/><path d="M8.5 7.5V6a2 2 0 0 1 2-2h3a2 2 0 0 1 2 2v1.5"/><path d="M3 13h18"/>
  </symbol>
  <symbol id="icon-circle" viewBox="0 0 24 24" fill="none" stroke="currentColor" stroke-width="1.8">
    <circle cx="12" cy="12" r="8.5"/>
  </symbol>
  <symbol id="icon-check-circle" viewBox="0 0 24 24" fill="none" stroke="currentColor" stroke-width="1.8" stroke-linecap="round" stroke-linejoin="round">
    <circle cx="12" cy="12" r="8.5"/><path d="M8.3 12.3l2.4 2.4 5-5.4"/>
  </symbol>
  <symbol id="icon-error-circle" viewBox="0 0 24 24" fill="none" stroke="currentColor" stroke-width="1.8" stroke-linecap="round" stroke-linejoin="round">
    <circle cx="12" cy="12" r="8.5"/><path d="M12 7.5v5.5"/><path d="M12 16.3h.01"/>
  </symbol>
  <symbol id="icon-key" viewBox="0 0 24 24" fill="none" stroke="currentColor" stroke-width="1.8" stroke-linecap="round" stroke-linejoin="round">
    <circle cx="7.5" cy="14.5" r="3.5"/><path d="M10 12l8-8"/><path d="M15.5 6.5 18 9"/><path d="M13 9l2 2"/>
  </symbol>
  <symbol id="icon-lock-alt" viewBox="0 0 24 24" fill="none" stroke="currentColor" stroke-width="1.8" stroke-linecap="round" stroke-linejoin="round">
    <rect x="5" y="10.5" width="14" height="9.5" rx="2"/><path d="M8 10.5V7.5a4 4 0 0 1 8 0v3"/>
  </symbol>
  <symbol id="icon-lock-open-alt" viewBox="0 0 24 24" fill="none" stroke="currentColor" stroke-width="1.8" stroke-linecap="round" stroke-linejoin="round">
    <rect x="5" y="10.5" width="14" height="9.5" rx="2"/><path d="M8 10.5V7.5a4 4 0 0 1 7.5-2"/>
  </symbol>
</svg>